<svg width="24" height="24" viewBox="0 0 24 24" fill="none" xmlns="http://www.w3.org/2000/svg">
<path d="M21.0117 5.98047C17.6817 5.65047 14.3317 5.48047 10.9917 5.48047C9.01172 5.48047 7.03172 5.58047 5.05172 5.78047L3.01172 5.98047" stroke="#0C4F14" stroke-width="1.5" stroke-linecap="round" stroke-linejoin="round"/>
<path d="M8.51172 4.97L8.73172 3.66C8.89172 2.71 9.01172 2 10.7017 2H13.3217C15.0117 2 15.1417 2.75 15.2917 3.67L15.5117 4.97" stroke="#0C4F14" stroke-width="1.5" stroke-linecap="round" stroke-linejoin="round"/>
<path d="M18.8621 9.13965L18.2121 19.2096C18.1021 20.7796 18.0121 21.9996 15.2221 21.9996H8.80211C6.01211 21.9996 5.92211 20.7796 5.81211 19.2096L5.16211 9.13965" stroke="#0C4F14" stroke-width="1.5" stroke-linecap="round" stroke-linejoin="round"/>
<path d="M10.3418 16.5H13.6718" stroke="#0C4F14" stroke-width="1.5" stroke-linecap="round" stroke-linejoin="round"/>
<path d="M9.51172 12.5H14.5117" stroke="#0C4F14" stroke-width="1.5" stroke-linecap="round" stroke-linejoin="round"/>
</svg>
