<svg width="23" height="20" viewBox="0 0 23 20" fill="none" xmlns="http://www.w3.org/2000/svg">
<path d="M14.7657 9.99993C14.7657 11.6499 13.3062 12.9833 11.5 12.9833C9.69389 12.9833 8.23438 11.6499 8.23438 9.99993C8.23438 8.34993 9.69389 7.0166 11.5 7.0166C13.3062 7.0166 14.7657 8.34993 14.7657 9.99993Z" stroke="#0C4F14" stroke-width="1.5" stroke-linecap="round" stroke-linejoin="round"/>
<path d="M11.5 16.8913C14.7201 16.8913 17.7212 15.1579 19.8101 12.1579C20.6311 10.9829 20.6311 9.00794 19.8101 7.83294C17.7212 4.83294 14.7201 3.09961 11.5 3.09961C8.27999 3.09961 5.27887 4.83294 3.18995 7.83294C2.36898 9.00794 2.36898 10.9829 3.18995 12.1579C5.27887 15.1579 8.27999 16.8913 11.5 16.8913Z" stroke="#0C4F14" stroke-width="1.5" stroke-linecap="round" stroke-linejoin="round"/>
</svg>
