<svg width="28" height="28" viewBox="0 0 28 28" fill="none" xmlns="http://www.w3.org/2000/svg">
<path d="M10.4997 25.6663H17.4997C23.333 25.6663 25.6663 23.333 25.6663 17.4997V10.4997C25.6663 4.66634 23.333 2.33301 17.4997 2.33301H10.4997C4.66634 2.33301 2.33301 4.66634 2.33301 10.4997V17.4997C2.33301 23.333 4.66634 25.6663 10.4997 25.6663Z" stroke="#838383" stroke-width="1.5" stroke-linecap="round" stroke-linejoin="round"/>
<path d="M14.0003 18.0837C16.2555 18.0837 18.0837 16.2555 18.0837 14.0003C18.0837 11.7452 16.2555 9.91699 14.0003 9.91699C11.7452 9.91699 9.91699 11.7452 9.91699 14.0003C9.91699 16.2555 11.7452 18.0837 14.0003 18.0837Z" stroke="#838383" stroke-width="1.5" stroke-linecap="round" stroke-linejoin="round"/>
<path d="M20.5751 8.16634H20.5886" stroke="#838383" stroke-width="2" stroke-linecap="round" stroke-linejoin="round"/>
</svg>
