<svg width="28" height="28" viewBox="0 0 28 28" fill="none" xmlns="http://www.w3.org/2000/svg">
<path d="M10.4997 25.6663H17.4997C23.333 25.6663 25.6663 23.333 25.6663 17.4997V10.4997C25.6663 4.66634 23.333 2.33301 17.4997 2.33301H10.4997C4.66634 2.33301 2.33301 4.66634 2.33301 10.4997V17.4997C2.33301 23.333 4.66634 25.6663 10.4997 25.6663Z" stroke="#838383" stroke-width="1.5" stroke-linecap="round" stroke-linejoin="round"/>
<path d="M14.2252 13.0444V14.2155L14.9048 13.2631L14.9048 13.2631L14.905 13.2628L14.9052 13.2626L14.9053 13.2625L14.9053 13.2624L14.9094 13.257C14.9135 13.2515 14.9205 13.2423 14.9301 13.2301C14.9495 13.2056 14.9795 13.1689 15.0195 13.124C15.0997 13.0339 15.2178 12.9134 15.3673 12.7935C15.6711 12.5496 16.0728 12.3327 16.5321 12.3327C17.1537 12.3327 17.6627 12.5336 18.0192 12.9204C18.3784 13.3101 18.625 13.9346 18.625 14.8605V18.1834H17.2315V15.1082C17.2315 14.6406 17.1497 14.1883 16.9144 13.8428C16.6627 13.4733 16.269 13.2748 15.7706 13.2748C14.9757 13.2748 14.5143 13.819 14.3233 14.2925C14.2366 14.5046 14.2251 14.7626 14.2251 14.9568V18.1834H12.8315V12.4841H14.2252V13.0444ZM9.375 10.1144C9.375 9.89609 9.45591 9.71787 9.58866 9.59267C9.72213 9.46679 9.92943 9.375 10.2127 9.375C10.495 9.375 10.6935 9.466 10.8211 9.58941C10.9487 9.71276 11.0304 9.89263 11.0364 10.1185C11.0354 10.3296 10.9569 10.5071 10.8257 10.6329C10.694 10.7593 10.4875 10.8535 10.1985 10.8535H10.1846C9.66345 10.8535 9.375 10.5175 9.375 10.1144ZM9.50172 12.4841H10.8954V18.1834H9.5017L9.50172 12.4841Z" fill="#838383" stroke="#838383" stroke-width="0.75"/>
</svg>
