<svg width="28" height="28" viewBox="0 0 28 28" fill="none" xmlns="http://www.w3.org/2000/svg">
<path d="M19.833 24.2087H8.16634C4.15301 24.2087 1.45801 21.5137 1.45801 17.5003V10.5003C1.45801 6.48699 4.15301 3.79199 8.16634 3.79199H19.833C23.8463 3.79199 26.5413 6.48699 26.5413 10.5003V17.5003C26.5413 21.5137 23.8463 24.2087 19.833 24.2087ZM8.16634 5.54199C5.15634 5.54199 3.20801 7.49033 3.20801 10.5003V17.5003C3.20801 20.5103 5.15634 22.4587 8.16634 22.4587H19.833C22.843 22.4587 24.7913 20.5103 24.7913 17.5003V10.5003C24.7913 7.49033 22.843 5.54199 19.833 5.54199H8.16634Z" fill="#838383"/>
<path d="M12.3552 18.1188C12.0169 18.1188 11.6902 18.0371 11.3985 17.8738C10.7219 17.4888 10.3252 16.7071 10.3252 15.7388V12.2854C10.3252 11.3171 10.7102 10.5354 11.3985 10.1504C12.0752 9.76542 12.9502 9.83542 13.7785 10.3371L16.6602 12.0638C17.4535 12.5421 17.9085 13.2538 17.9085 14.0121C17.9085 14.7704 17.4535 15.4821 16.6602 15.9604L13.7785 17.6871C13.3002 17.9671 12.8102 18.1188 12.3552 18.1188ZM12.3552 11.6321C12.3189 11.6316 12.2829 11.6396 12.2502 11.6554C12.1685 11.7021 12.0752 11.9121 12.0752 12.2738V15.7271C12.0752 16.0771 12.1685 16.2871 12.2502 16.3454C12.3435 16.3921 12.5652 16.3688 12.8685 16.1821L15.7502 14.4554C16.0419 14.2804 16.1469 14.1054 16.1469 14.0004C16.1469 13.8954 16.0419 13.7321 15.7502 13.5454L12.8685 11.8188C12.6585 11.6904 12.4719 11.6321 12.3552 11.6321Z" fill="#838383"/>
</svg>
