<svg width="18" height="18" viewBox="0 0 18 18" fill="none" xmlns="http://www.w3.org/2000/svg">
<path d="M10.0574 15.5928L8.99992 16.2753C8.01742 16.8828 6.65242 16.2003 6.65242 14.9853V10.9728C6.65242 10.4403 6.35242 9.75781 6.04492 9.38281L3.1649 6.35281C2.7824 5.97031 2.48242 5.29531 2.48242 4.83781V3.09781C2.48242 2.19031 3.16494 1.50781 3.99744 1.50781H14.0024C14.8349 1.50781 15.5174 2.1903 15.5174 3.0228V4.68781C15.5174 5.29531 15.1349 6.05281 14.7599 6.42781" stroke="#0C4F14" stroke-width="1.5" stroke-miterlimit="10" stroke-linecap="round" stroke-linejoin="round"/>
<path d="M12.8101 8.91708L10.1551 11.5721C10.0501 11.6771 9.95261 11.8721 9.93011 12.0146L9.78761 13.0271C9.73511 13.3946 9.99012 13.6496 10.3576 13.5971L11.3701 13.4546C11.5126 13.4321 11.7151 13.3346 11.8126 13.2296L14.4676 10.5746C14.9251 10.1171 15.1426 9.58457 14.4676 8.90957C13.8001 8.24207 13.2676 8.45958 12.8101 8.91708Z" stroke="#0C4F14" stroke-width="1.5" stroke-miterlimit="10" stroke-linecap="round" stroke-linejoin="round"/>
<path d="M12.4351 9.29199C12.6601 10.102 13.29 10.732 14.1 10.957" stroke="#0C4F14" stroke-width="1.5" stroke-miterlimit="10" stroke-linecap="round" stroke-linejoin="round"/>
</svg>
